<?xml version="1.0" standalone="no"?>
<!DOCTYPE svg PUBLIC "-//W3C//DTD SVG 20010904//EN"
 "http://www.w3.org/TR/2001/REC-SVG-20010904/DTD/svg10.dtd">
<svg version="1.0" xmlns="http://www.w3.org/2000/svg"
 width="512.000000pt" height="512.000000pt" viewBox="0 0 512.000000 512.000000"
 preserveAspectRatio="xMidYMid meet">

<g transform="translate(0.000000,512.000000) scale(0.100000,-0.100000)"
fill="#000000" stroke="none">
<path d="M2340 4984 c-19 -2 -82 -11 -140 -20 -973 -145 -1771 -876 -2003
-1835 -52 -211 -62 -307 -62 -569 0 -312 24 -473 111 -742 262 -813 939 -1436
1767 -1627 203 -47 292 -56 557 -55 229 1 270 3 400 27 900 162 1625 792 1904
1655 87 268 111 430 111 742 0 254 -10 349 -56 547 -146 635 -559 1200 -1124
1540 -258 155 -549 262 -855 314 -96 16 -178 22 -350 24 -124 2 -241 1 -260
-1z m605 -233 c238 -45 413 -104 616 -207 571 -289 984 -799 1149 -1416 95
-357 95 -779 0 -1136 -104 -390 -323 -761 -606 -1032 l-79 -75 -6 235 c-6 253
-14 300 -69 417 -76 164 -205 296 -364 373 -172 83 -140 80 -1026 80 -886 0
-854 3 -1026 -80 -159 -77 -288 -209 -364 -373 -55 -117 -63 -164 -69 -417
l-6 -235 -79 75 c-282 268 -506 651 -607 1037 -93 355 -93 771 0 1126 203 778
825 1395 1605 1593 203 52 318 64 581 60 193 -3 262 -8 350 -25z"/>
<path d="M2454 4080 c-230 -31 -441 -162 -569 -355 -100 -151 -138 -276 -138
-455 0 -179 38 -304 138 -455 112 -169 273 -283 480 -337 110 -29 287 -29 400
1 243 65 452 246 548 476 83 200 83 429 0 630 -109 263 -367 459 -653 494 -93
12 -117 12 -206 1z"/>
</g>
</svg>
